<?xml version="1.0" standalone="no"?><!DOCTYPE svg PUBLIC "-//W3C//DTD SVG 1.1//EN" "http://www.w3.org/Graphics/SVG/1.1/DTD/svg11.dtd"><svg t="1541937708864" class="icon" style="" viewBox="0 0 1024 1024" version="1.1" xmlns="http://www.w3.org/2000/svg" p-id="2501" xmlns:xlink="http://www.w3.org/1999/xlink" width="32" height="32"><defs><style type="text/css"></style></defs><path d="M512 511.317333m-266.24 0a266.24 266.24 0 1 0 532.48 0 266.24 266.24 0 1 0-532.48 0Z" fill="#FFE55C" p-id="2502"></path><path d="M611.669333 493.568c-11.605333 0-20.48-8.874667-20.48-20.48v-43.690667c0-11.605333 8.874667-20.48 20.48-20.48s20.48 8.874667 20.48 20.48v43.690667c0 11.605333-9.557333 20.48-20.48 20.48zM414.378667 493.568c-11.605333 0-20.48-8.874667-20.48-20.48v-43.690667c0-11.605333 8.874667-20.48 20.48-20.48s20.48 8.874667 20.48 20.48v43.690667c0 11.605333-8.874667 20.48-20.48 20.48zM512 642.389333c-44.373333 0-85.333333-19.797333-113.322667-53.248-7.509333-8.874667-6.144-21.845333 2.730667-28.672 8.874667-7.509333 21.845333-6.144 28.672 2.730667 20.48 24.576 49.834667 38.912 81.92 38.912s61.44-14.336 81.92-38.912c7.509333-8.874667 19.797333-10.24 28.672-2.730667 8.874667 7.509333 10.24 19.797333 2.730667 28.672-27.989333 33.450667-68.949333 53.248-113.322667 53.248z" fill="#4D4D4D" p-id="2503"></path><path d="M512 874.496c-200.021333 0-362.496-162.474667-362.496-362.496S311.978667 149.504 512 149.504s362.496 162.474667 362.496 362.496-162.474667 362.496-362.496 362.496z m0-684.032C335.189333 190.464 190.464 334.506667 190.464 512S334.506667 833.536 512 833.536 833.536 689.493333 833.536 512 688.810667 190.464 512 190.464z" fill="#4D4D4D" p-id="2504"></path></svg>