<?xml version="1.0" encoding="UTF-8" standalone="no"?>
<!-- Created with Inkscape (http://www.inkscape.org/) -->

<svg
   xmlns:dc="http://purl.org/dc/elements/1.1/"
   xmlns:cc="http://creativecommons.org/ns#"
   xmlns:rdf="http://www.w3.org/1999/02/22-rdf-syntax-ns#"
   xmlns:svg="http://www.w3.org/2000/svg"
   xmlns="http://www.w3.org/2000/svg"
   xmlns:sodipodi="http://sodipodi.sourceforge.net/DTD/sodipodi-0.dtd"
   xmlns:inkscape="http://www.inkscape.org/namespaces/inkscape"
   width="210mm"
   height="297mm"
   viewBox="0 0 210 297"
   version="1.1"
   id="svg8"
   sodipodi:docname="sun2.svg"
   inkscape:version="0.92.3 (2405546, 2018-03-11)">
  <defs
     id="defs2" />
  <sodipodi:namedview
     id="base"
     pagecolor="#ffffff"
     bordercolor="#666666"
     borderopacity="1.0"
     inkscape:pageopacity="0.0"
     inkscape:pageshadow="2"
     inkscape:zoom="1.4"
     inkscape:cx="448.45071"
     inkscape:cy="548.66002"
     inkscape:document-units="mm"
     inkscape:current-layer="layer1"
     showgrid="false"
     inkscape:window-width="1920"
     inkscape:window-height="1017"
     inkscape:window-x="-8"
     inkscape:window-y="-8"
     inkscape:window-maximized="1" />
  <metadata
     id="metadata5">
    <rdf:RDF>
      <cc:Work
         rdf:about="">
        <dc:format>image/svg+xml</dc:format>
        <dc:type
           rdf:resource="http://purl.org/dc/dcmitype/StillImage" />
        <dc:title></dc:title>
      </cc:Work>
    </rdf:RDF>
  </metadata>
  <g
     inkscape:label="Layer 1"
     inkscape:groupmode="layer"
     id="layer1">
    <g
       id="g24"
       transform="matrix(0.03527778,0,0,-0.03527778,-17.052298,253.84566)"
       style="fill:#ffffff;stroke:none">
      <path
         id="path12"
         d="m 3340,5099 c -308,-176 -429,-209 -759,-209 -189,0 -197,-1 -222,-23 -14,-12 -68,-93 -120,-181 -136,-230 -238,-342 -419,-460 -41,-26 -124,-80 -185,-120 l -110,-71 -10,-142 c -8,-118 -13,-146 -31,-170 -42,-57 -54,-91 -54,-158 0,-46 6,-78 20,-105 19,-38 19,-39 1,-92 -25,-73 -82,-189 -163,-332 -37,-67 -68,-132 -68,-145 0,-13 35,-88 79,-165 179,-320 197,-384 211,-744 5,-128 12,-237 15,-241 3,-5 60,-42 128,-82 342,-203 434,-296 630,-635 79,-136 59,-128 335,-136 338,-9 422,-34 737,-213 111,-64 144,-77 171,-71 12,3 71,34 131,68 323,183 402,206 745,217 214,6 239,9 258,26 12,11 57,78 100,150 122,200 153,243 247,338 89,89 116,108 323,235 63,39 127,79 141,90 l 25,21 12,243 c 11,244 21,312 64,433 23,68 93,211 132,273 14,23 26,44 26,46 0,2 16,32 35,66 19,34 35,71 35,82 0,10 -40,91 -89,179 -49,88 -101,190 -116,227 -15,37 -32,77 -38,90 -8,17 -7,31 3,55 10,21 15,67 15,128 0,95 -1,98 -33,138 -33,41 -33,43 -38,169 -3,70 -7,137 -10,149 -3,16 -42,45 -141,104 -331,197 -412,277 -604,602 -99,169 -76,157 -309,157 -337,0 -453,32 -773,214 -156,88 -163,88 -327,-5 z m 314,-143 c 285,-160 402,-193 736,-204 l 195,-7 83,-139 c 170,-285 265,-380 556,-557 l 141,-86 3,-73 c 2,-40 -1,-77 -6,-82 -4,-4 -57,-2 -117,6 -61,8 -140,18 -178,21 -66,7 -67,7 -99,53 -91,134 -262,314 -393,413 -394,300 -943,426 -1410,324 -139,-30 -220,-55 -345,-107 -127,-53 -155,-89 -114,-146 21,-30 59,-28 136,7 90,41 227,85 348,112 90,20 134,23 310,24 134,0 229,-5 275,-14 344,-67 627,-208 854,-425 87,-84 181,-193 181,-211 0,-13 -24,-15 -142,-15 -146,0 -324,-24 -520,-69 -105,-24 -328,-66 -433,-80 -154,-21 -426,-8 -595,29 -25,5 -81,16 -125,25 -44,8 -111,22 -150,30 -210,46 -357,65 -494,65 -116,0 -141,3 -141,14 0,33 202,243 308,322 30,21 60,52 69,67 13,25 13,31 -2,53 -26,40 -58,50 -93,28 -118,-75 -287,-239 -392,-379 -41,-55 -79,-103 -84,-107 -6,-4 -40,-10 -76,-13 -83,-8 -216,-24 -258,-32 l -33,-5 3,83 3,84 105,63 c 280,167 418,296 554,518 44,71 89,145 102,165 l 22,36 202,7 c 332,11 461,49 775,230 44,25 86,46 94,46 7,0 73,-33 145,-74 z M 2412,3710 c 144,-10 285,-29 388,-51 25,-6 81,-19 125,-29 154,-36 171,-39 274,-54 122,-19 504,-22 597,-6 144,26 233,44 284,57 323,87 730,104 1173,49 144,-18 151,-20 177,-53 33,-42 27,-92 -19,-149 -48,-61 -92,-135 -114,-194 -22,-61 -57,-195 -57,-220 0,-42 -50,-221 -77,-277 -53,-107 -169,-201 -305,-246 -158,-52 -156,-52 -358,-52 -184,0 -200,2 -280,27 -213,68 -336,198 -386,408 -9,41 -25,91 -34,110 -9,19 -23,58 -30,85 -27,104 -83,185 -154,222 -21,12 -56,17 -106,17 -64,1 -82,-3 -122,-27 -87,-51 -126,-126 -198,-382 -42,-150 -79,-225 -142,-288 -65,-65 -136,-106 -248,-143 -83,-28 -90,-29 -295,-29 -204,1 -212,2 -290,29 -277,96 -378,215 -430,506 -41,229 -73,316 -161,432 -30,40 -57,83 -61,96 -8,33 21,90 52,102 34,13 333,49 490,59 72,4 135,9 142,10 6,0 80,-4 165,-9 z m -819,-482 c 27,-75 36,-111 52,-218 22,-144 33,-183 76,-275 24,-50 42,-107 48,-150 27,-183 118,-432 221,-601 136,-221 353,-446 558,-577 40,-26 75,-47 77,-47 2,0 26,-13 52,-28 62,-36 197,-93 298,-125 211,-68 448,-95 664,-77 321,26 599,123 867,301 151,101 362,312 463,464 108,161 203,365 241,514 27,109 38,161 45,205 3,27 20,74 36,106 43,85 57,129 74,243 21,139 29,172 53,241 21,57 29,74 35,65 1,-2 20,-40 42,-84 22,-44 66,-126 98,-183 39,-69 56,-109 52,-122 -3,-11 -31,-64 -62,-117 -67,-119 -113,-209 -124,-243 -4,-14 -16,-50 -27,-80 -40,-109 -54,-210 -61,-419 l -6,-203 -140,-85 c -290,-175 -383,-268 -558,-558 l -84,-140 -189,-6 c -336,-12 -475,-51 -767,-217 -60,-34 -113,-62 -119,-62 -5,0 -70,34 -143,75 -284,160 -402,193 -730,204 l -200,6 -75,125 c -175,293 -282,403 -535,551 -71,43 -142,89 -158,103 l -27,25 6,124 c 11,193 -20,384 -87,554 -17,43 -67,141 -110,219 -44,77 -79,146 -79,153 0,7 31,70 69,140 38,69 82,152 97,184 16,31 31,57 35,57 3,0 13,-19 22,-42 z m 1983,-33 c 35,-35 58,-91 109,-265 24,-82 54,-173 68,-202 76,-166 250,-301 462,-359 113,-31 367,-38 498,-14 120,22 227,57 305,99 58,32 62,32 62,14 0,-35 -61,-199 -112,-303 -165,-334 -437,-597 -783,-757 -357,-165 -786,-192 -1170,-71 -89,27 -112,37 -235,98 -123,61 -179,96 -279,175 -265,209 -477,524 -559,833 -12,44 -7,46 51,14 156,-86 343,-123 582,-114 261,9 418,69 565,217 100,100 133,159 181,331 43,157 88,269 120,302 37,37 99,38 135,2 z"
         inkscape:connector-curvature="0"
         style="fill:#ffffff" />
      <path
         id="path16"
         d="m 2110,3559 c -106,-12 -116,-15 -160,-55 -60,-54 -74,-104 -67,-227 16,-249 71,-408 186,-529 108,-115 221,-157 425,-158 214,0 361,61 481,200 84,98 132,219 156,396 16,120 2,179 -46,200 -20,8 -35,23 -39,38 -5,21 -20,29 -98,54 -93,30 -241,62 -375,82 -83,12 -354,11 -463,-1 z m 492,-144 c 114,-15 143,-21 282,-63 114,-34 120,-42 107,-153 -19,-161 -80,-295 -167,-367 -112,-93 -291,-132 -450,-98 -131,28 -217,93 -273,207 -40,82 -58,160 -71,306 -14,161 -13,163 145,176 108,9 331,5 427,-8 z"
         inkscape:connector-curvature="0"
         style="fill:#ffffff" />
      <path
         id="path18"
         d="m 4435,3559 c -102,-12 -191,-28 -270,-51 -181,-50 -218,-71 -261,-144 -29,-48 -29,-64 -5,-244 19,-145 97,-300 195,-386 113,-99 256,-146 446,-146 107,0 135,4 198,25 122,42 212,111 212,163 0,24 -42,64 -69,64 -9,0 -40,-16 -69,-35 -78,-53 -174,-84 -262,-85 -66,0 -203,26 -255,49 -148,65 -251,236 -271,446 -5,60 -3,73 12,92 16,18 112,54 204,77 146,37 474,56 635,38 122,-14 129,-23 120,-147 -4,-49 -14,-124 -23,-165 -22,-103 -21,-139 7,-162 79,-63 128,34 150,297 20,227 -31,289 -257,313 -119,13 -330,14 -437,1 z"
         inkscape:connector-curvature="0"
         style="fill:#ffffff" />
      <path
         id="path22"
         d="m 3346,2689 c -33,-26 -33,-59 1,-100 78,-92 249,-91 328,3 32,38 32,62 -1,94 -28,29 -59,27 -102,-7 -34,-26 -88,-24 -137,6 -49,30 -55,31 -89,4 z"
         inkscape:connector-curvature="0"
         style="fill:#ffffff" />
    </g>
  </g>
</svg>
